<svg width="203" height="29" viewBox="0 0 203 29" fill="none" xmlns="http://www.w3.org/2000/svg">
<path d="M60.925 14.9C62.35 14.15 63.25 12.8 63.25 11.05C63.25 8.325 61 6.5 56.625 6.5H48.075V24H57.125C61.725 24 64.125 22.25 64.125 19.225C64.125 17.025 62.875 15.525 60.925 14.9ZM56.125 9.55C58.1 9.55 59.175 10.225 59.175 11.6C59.175 12.975 58.1 13.675 56.125 13.675H52.1V9.55H56.125ZM56.825 20.95H52.1V16.625H56.825C58.925 16.625 60.05 17.325 60.05 18.8C60.05 20.3 58.925 20.95 56.825 20.95ZM75.6662 24.3C81.1662 24.3 85.2412 20.475 85.2412 15.25C85.2412 10.025 81.1662 6.2 75.6662 6.2C70.1412 6.2 66.0912 10.05 66.0912 15.25C66.0912 20.45 70.1412 24.3 75.6662 24.3ZM75.6662 20.85C72.5412 20.85 70.1912 18.575 70.1912 15.25C70.1912 11.925 72.5412 9.65 75.6662 9.65C78.7912 9.65 81.1412 11.925 81.1412 15.25C81.1412 18.575 78.7912 20.85 75.6662 20.85ZM96.76 24.3C102.26 24.3 106.335 20.475 106.335 15.25C106.335 10.025 102.26 6.2 96.76 6.2C91.235 6.2 87.185 10.05 87.185 15.25C87.185 20.45 91.235 24.3 96.76 24.3ZM96.76 20.85C93.635 20.85 91.285 18.575 91.285 15.25C91.285 11.925 93.635 9.65 96.76 9.65C99.885 9.65 102.235 11.925 102.235 15.25C102.235 18.575 99.885 20.85 96.76 20.85ZM121.354 24H126.079L118.404 14.3L125.654 6.5H121.154L113.404 14.675V6.5H109.379V24H113.404V19.575L115.754 17.125L121.354 24ZM147.015 6.5V17.125L138.315 6.5H134.965V24H138.965V13.375L147.69 24H151.015V6.5H147.015ZM163.63 24.3C169.13 24.3 173.205 20.475 173.205 15.25C173.205 10.025 169.13 6.2 163.63 6.2C158.105 6.2 154.055 10.05 154.055 15.25C154.055 20.45 158.105 24.3 163.63 24.3ZM163.63 20.85C160.505 20.85 158.155 18.575 158.155 15.25C158.155 11.925 160.505 9.65 163.63 9.65C166.755 9.65 169.105 11.925 169.105 15.25C169.105 18.575 166.755 20.85 163.63 20.85ZM198.238 6.5L194.163 18.9L190.163 6.5H186.413L182.288 18.8L178.338 6.5H174.138L179.888 24H184.213L188.188 12.15L192.038 24H196.388L202.113 6.5H198.238Z" fill="white"/>
<path d="M12.8333 1H15.1667V3.33333H12.8333V1Z" fill="white"/>
<path d="M19.8333 1H22.1667V3.33333H19.8333V1Z" fill="white"/>
<path d="M5.83333 1H8.16666V3.33333H5.83333V1Z" fill="white"/>
<path d="M26.8333 3.33331H22.1667V6.83331H19.8333V3.33331H15.1667V6.83331H12.8333V3.33331H8.16667V6.83331H5.83333V3.33331H1.16667C0.857247 3.33331 0.560501 3.45623 0.341709 3.67502C0.122916 3.89381 0 4.19056 0 4.49998L0 25.5C0 25.8094 0.122916 26.1061 0.341709 26.3249C0.560501 26.5437 0.857247 26.6666 1.16667 26.6666H26.8333C27.1427 26.6666 27.4395 26.5437 27.6583 26.3249C27.8771 26.1061 28 25.8094 28 25.5V4.49998C28 4.19056 27.8771 3.89381 27.6583 3.67502C27.4395 3.45623 27.1427 3.33331 26.8333 3.33331ZM21.4887 18.2827L19.8333 17.1V22C19.8333 22.3094 19.7104 22.6061 19.4916 22.8249C19.2728 23.0437 18.9761 23.1666 18.6667 23.1666H15.75V18.5C15.75 18.1906 15.6271 17.8938 15.4083 17.675C15.1895 17.4562 14.8927 17.3333 14.5833 17.3333H13.4167C13.1072 17.3333 12.8105 17.4562 12.5917 17.675C12.3729 17.8938 12.25 18.1906 12.25 18.5V23.1666H9.33333C9.02391 23.1666 8.72717 23.0437 8.50837 22.8249C8.28958 22.6061 8.16667 22.3094 8.16667 22V17.1L6.51146 18.2827L5.15521 16.3839L13.3219 10.5506C13.5206 10.4113 13.7573 10.3366 14 10.3366C14.2427 10.3366 14.4794 10.4113 14.6781 10.5506L22.8448 16.3839L21.4887 18.2827Z" fill="white"/>
</svg>
